<svg width="16" height="16" viewBox="0 0 16 16" fill="none" xmlns="http://www.w3.org/2000/svg">
<path d="M6.86971 4.81422C7.29776 3.74709 7.51178 3.21353 7.8595 3.13958C7.95093 3.12014 8.04543 3.12014 8.13686 3.13958C8.48457 3.21353 8.6986 3.74709 9.12665 4.81422C9.37007 5.42107 9.49178 5.7245 9.71953 5.93088C9.7834 5.98876 9.85275 6.04032 9.92658 6.08482C10.1898 6.24347 10.5184 6.2729 11.1756 6.33175C12.2881 6.43139 12.8444 6.4812 13.0142 6.79837C13.0494 6.86405 13.0733 6.93517 13.085 7.00877C13.1413 7.36412 12.7324 7.73616 11.9145 8.48024L11.6874 8.68687C11.305 9.03474 11.1138 9.20868 11.0033 9.42574C10.9369 9.55596 10.8925 9.69619 10.8716 9.84083C10.8369 10.082 10.8929 10.3343 11.0048 10.8389L11.0448 11.0192C11.2456 11.9243 11.346 12.3768 11.2207 12.5992C11.1081 12.799 10.9008 12.9269 10.6717 12.9378C10.4167 12.95 10.0574 12.6572 9.3387 12.0716C8.86523 11.6858 8.62849 11.4929 8.36569 11.4176C8.12552 11.3487 7.87084 11.3487 7.63067 11.4176C7.36786 11.4929 7.13113 11.6858 6.65765 12.0716C5.939 12.6572 5.57968 12.95 5.32467 12.9378C5.0956 12.9269 4.88824 12.799 4.77566 12.5992C4.65033 12.3768 4.75073 11.9243 4.95153 11.0192L4.99153 10.8389C5.1035 10.3343 5.15948 10.082 5.12474 9.84083C5.1039 9.69619 5.05942 9.55596 4.99309 9.42574C4.88251 9.20868 4.69133 9.03474 4.30896 8.68687L4.08185 8.48024C3.26399 7.73616 2.85506 7.36412 2.91138 7.00877C2.92304 6.93517 2.94696 6.86405 2.98214 6.79837C3.15201 6.4812 3.70826 6.43139 4.82077 6.33175C5.47796 6.2729 5.80655 6.24347 6.06978 6.08482C6.14361 6.04032 6.21295 5.98876 6.27683 5.93088C6.50457 5.7245 6.62628 5.42107 6.86971 4.81422Z" fill="#FFC403" stroke="#FFC403" stroke-width="2"/>
</svg>
